<svg aria-hidden="true" style="position: absolute; width: 0; height: 0; overflow: hidden;" version="1.1" xmlns="http://www.w3.org/2000/svg" xmlns:xlink="http://www.w3.org/1999/xlink">
    <defs>
        <symbol id="icon-calendar" viewBox="0 0 32 32">
            <path fill="#fff" style="fill: var(--color1, #fff)" d="M6.667 6.333c-0.92 0-1.667 0.747-1.667 1.667v18.667c0 0.92 0.747 1.667 1.667 1.667h18.667c0.92 0 1.667-0.747 1.667-1.667v-18.667c0-0.92-0.747-1.667-1.667-1.667h-18.667zM3 8c0-2.025 1.642-3.667 3.667-3.667v0h18.667c2.025 0 3.667 1.642 3.667 3.667v0 18.667c0 2.025-1.642 3.667-3.667 3.667v0h-18.667c-2.025 0-3.667-1.642-3.667-3.667v0-18.667z"></path>
            <path fill="#fff" style="fill: var(--color1, #fff)" d="M21.333 1.667c0.552 0 1 0.448 1 1v0 5.333c0 0.552-0.448 1-1 1s-1-0.448-1-1v0-5.333c0-0.552 0.448-1 1-1v0zM10.667 1.667c0.552 0 1 0.448 1 1v0 5.333c0 0.552-0.448 1-1 1s-1-0.448-1-1v0-5.333c0-0.552 0.448-1 1-1v0zM3 13.333c0-0.552 0.448-1 1-1v0h24c0.552 0 1 0.448 1 1s-0.448 1-1 1v0h-24c-0.552 0-1-0.448-1-1v0z"></path>
        </symbol>
        <symbol id="icon-map" viewBox="0 0 32 32">
            <path fill="#fff" style="fill: var(--color1, #fff)" d="M16 2.333c-6.075 0-11 4.925-11 11v0c0 4.264 2.765 8.355 5.725 11.48 1.596 1.671 3.32 3.191 5.166 4.553l0.108 0.076c1.955-1.439 3.679-2.959 5.26-4.615l0.015-0.015c2.96-3.125 5.725-7.216 5.725-11.48-0.001-6.075-4.925-10.999-11-10.999v0zM16 30.667l-0.555 0.832-0.012-0.008-0.029-0.020c-0.221-0.149-0.386-0.266-0.548-0.386l0.042 0.030c-2.087-1.529-3.925-3.146-5.61-4.912l-0.015-0.016c-3.039-3.207-6.273-7.783-6.273-12.853 0-7.18 5.82-13 13-13s13 5.82 13 13v0c0 5.069-3.235 9.645-6.275 12.853-1.7 1.782-3.538 3.4-5.509 4.848l-0.115 0.081c-0.093 0.070-0.258 0.187-0.424 0.302l-0.081 0.053-0.029 0.020-0.008 0.005-0.003 0.001s-0.001 0.001-0.556-0.831zM16 30.667l0.555 0.832c-0.156 0.105-0.348 0.168-0.555 0.168s-0.399-0.063-0.558-0.17l0.004 0.002 0.555-0.832z"></path>
            <path fill="#fff" style="fill: var(--color1, #fff)" d="M16 10.333c-1.657 0-3 1.343-3 3s1.343 3 3 3v0c1.657 0 3-1.343 3-3s-1.343-3-3-3v0zM11 13.333c0-2.761 2.239-5 5-5s5 2.239 5 5v0c0 2.761-2.239 5-5 5s-5-2.239-5-5v0z"></path>
        </symbol>
        <symbol id="icon-Right" viewBox="0 0 33 32">
            <path fill="#1e2e36" style="fill: var(--color1, #1e2e36)" d="M16.533 32c8.837 0 16-7.163 16-16s-7.163-16-16-16c-8.837 0-16 7.163-16 16s7.163 16 16 16z"></path>
            <path fill="#fff" style="fill: var(--color2, #fff)" d="M20.675 15.861c0 0.224-0.082 0.449-0.245 0.62l-5.136 5.384c-0.327 0.343-0.856 0.343-1.183 0s-0.326-0.898 0-1.24l4.544-4.764-4.544-4.764c-0.327-0.342-0.327-0.898 0-1.24s0.856-0.343 1.183 0l5.136 5.384c0.163 0.171 0.245 0.396 0.245 0.62z"></path>
        </symbol>
        <symbol id="icon-Left" viewBox="0 0 31 32">
            <path fill="none" stroke="#1e2e36" style="stroke: var(--color1, #1e2e36)" stroke-linejoin="miter" stroke-linecap="butt" stroke-miterlimit="4" stroke-width="1" d="M15.5 31c8.284 0 15-6.716 15-15s-6.716-15-15-15c-8.284 0-15 6.716-15 15s6.716 15 15 15z"></path>
            <path d="M11.68 15.87c0-0.21 0.080-0.421 0.235-0.582l4.92-5.047c0.143-0.149 0.344-0.241 0.567-0.241s0.423 0.092 0.566 0.24l0 0c0.145 0.15 0.235 0.355 0.235 0.581s-0.089 0.431-0.235 0.581l0-0-4.353 4.466 4.353 4.467c0.145 0.15 0.235 0.355 0.235 0.581s-0.089 0.431-0.235 0.581l0-0c-0.143 0.148-0.344 0.241-0.567 0.241s-0.423-0.092-0.566-0.24l-0-0-4.92-5.047c-0.145-0.149-0.234-0.353-0.234-0.578 0-0.001 0-0.003 0-0.004v0z"></path>
        </symbol>
        <symbol id="icon-chevron-right" viewBox="0 0 32 32">
            <path d="M24.707 11.293c0.391 0.391 0.391 1.024 0 1.414l-8 8c-0.391 0.391-1.024 0.391-1.414 0l-8-8c-0.391-0.391-0.391-1.024 0-1.414s1.024-0.391 1.414 0l7.293 7.293 7.293-7.293c0.391-0.391 1.024-0.391 1.414 0z"></path>
        </symbol>
        <symbol id="icon-up" viewBox="0 0 32 32">
            <path fill="#44c697" style="fill: var(--color1, #44c697)" d="M26.811 14.27c0 5.971-4.84 10.811-10.811 10.811s-10.811-4.84-10.811-10.811c0-5.971 4.84-10.811 10.811-10.811s10.811 4.84 10.811 10.811z"></path>
            <path fill="#fff" style="fill: var(--color2, #fff)" d="M16.306 10.623c-0.078-0.078-0.186-0.127-0.306-0.127s-0.227 0.048-0.306 0.127l-2.752 2.752c-0.078 0.078-0.127 0.186-0.127 0.306 0 0.239 0.194 0.433 0.433 0.433 0.119 0 0.227-0.048 0.306-0.127l2.446-2.446 2.446 2.446c0.078 0.078 0.186 0.127 0.306 0.127 0.239 0 0.433-0.194 0.433-0.433 0-0.12-0.048-0.228-0.127-0.306l-2.752-2.752zM16.432 17.808v-6.88h-0.865v6.88h0.865z"></path>
        </symbol>
        <symbol id="icon-Vector" viewBox="0 0 32 32">
            <path fill="#ffd001" style="fill: var(--color3, #ffd001)" d="M17.687 0c-7.736 2.633-14.263 8-16.925 16 2.63 7.909 9.097 13.336 16.925 16 6.962-5.416 10.758-9.766 13.551-16-4.008-2.715-5.693-4.114-8.943-8.317-4.354 2.042-8.145 4.419-11.502 8.23 1.204 1.733 3.206 3.348 4.823 4.678 2.357-1.749 4.155-3.453 5.318-4.914 0.731 0.901 1.554 1.499 2.339 2.001-2.027 3.476-4.299 5.385-7.106 7.208-4.216-2.251-7.604-6.149-9.253-9.445 3.087-5.137 7.93-8.605 13.432-10.537-0.891-1.576-2.062-3.045-2.661-4.904z"></path>
        </symbol>
        <symbol id="icon-kitchen" viewBox="0 0 32 32">
            <path d="M21.692 29.162h-11.384c-0.207 0-0.375-0.168-0.375-0.375v-8.719c0-0.207 0.168-0.375 0.375-0.375h11.384c0.207 0 0.375 0.168 0.375 0.375v8.718c0 0.207-0.168 0.375-0.375 0.375zM10.683 28.412h10.634v-7.968h-10.634v7.968z"></path>
            <path d="M21.692 30.766h-11.384c-0.207 0-0.375-0.168-0.375-0.375v0-1.605c0-0.207 0.168-0.375 0.375-0.375h11.384c0.207 0 0.375 0.168 0.375 0.375v1.605c0 0.207-0.168 0.375-0.375 0.375zM10.683 30.016h10.634v-0.854h-10.634v0.854zM21.692 20.444h-11.384c-0.207 0-0.375-0.168-0.375-0.375v0-3.697c0-0.207 0.168-0.375 0.375-0.375h11.384c0.207 0 0.375 0.168 0.375 0.375v3.697c0 0.207-0.168 0.375-0.375 0.375zM10.683 19.693h10.634v-2.947h-10.634v2.947z"></path>
            <path d="M16 19.436c-0.671 0-1.215-0.544-1.215-1.215s0.544-1.215 1.215-1.215v0c0.671 0 1.215 0.544 1.215 1.215s-0.544 1.215-1.215 1.215v0zM16 17.755c-0.257 0-0.465 0.208-0.465 0.465s0.208 0.465 0.465 0.465v0c0.257 0 0.465-0.208 0.465-0.465s-0.208-0.465-0.465-0.465v0zM19.157 19.436c-0.671 0-1.215-0.544-1.215-1.215s0.544-1.215 1.215-1.215v0c0.671 0 1.215 0.544 1.215 1.215s-0.544 1.215-1.215 1.215v0zM19.157 17.755c-0.257 0-0.465 0.208-0.465 0.465s0.208 0.465 0.465 0.465v0c0.257 0 0.465-0.208 0.465-0.465s-0.208-0.465-0.465-0.465v0zM12.843 19.436c-0.671 0-1.215-0.544-1.215-1.215s0.544-1.215 1.215-1.215v0c0.671 0 1.215 0.544 1.215 1.215s-0.544 1.215-1.215 1.215v0zM12.843 17.755c-0.257 0-0.465 0.208-0.465 0.465s0.208 0.465 0.465 0.465v0c0.257 0 0.465-0.208 0.465-0.465s-0.208-0.465-0.465-0.465v0zM19.491 22.636h-6.981c-0.487 0-0.882-0.395-0.882-0.882s0.395-0.882 0.882-0.882h6.981c0 0 0 0 0 0 0.487 0 0.882 0.395 0.882 0.882s-0.395 0.882-0.882 0.882h-0.001zM12.509 21.622c-0.073 0-0.132 0.059-0.132 0.132s0.059 0.132 0.132 0.132v0h6.981c0.073 0 0.132-0.059 0.132-0.132s-0.059-0.132-0.132-0.132v0h-6.981z"></path>
            <path d="M19.157 27.964h-6.315c-0.207 0-0.375-0.168-0.375-0.375v0-5.329c0-0.207 0.168-0.375 0.375-0.375h6.315c0.207 0 0.375 0.168 0.375 0.375v5.329c0 0.207-0.168 0.375-0.375 0.375zM13.218 27.214h5.565v-4.579h-5.565v4.579zM13.501 16.747c-0.207 0-0.375-0.168-0.375-0.375v0-0.931c0-0.207 0.168-0.375 0.375-0.375s0.375 0.168 0.375 0.375v0 0.931c0 0.207-0.168 0.375-0.375 0.375zM15.279 16.747c-0.207 0-0.375-0.168-0.375-0.375v0-0.556h-0.5c-0.207 0-0.375-0.168-0.375-0.375s0.168-0.375 0.375-0.375h0.875c0.207 0 0.375 0.168 0.375 0.375v0.931c0 0.207-0.168 0.375-0.375 0.375zM11.724 16.747c-0.207 0-0.375-0.168-0.375-0.375v0-0.931c0-0.207 0.168-0.375 0.375-0.375h0.875c0.207 0 0.375 0.168 0.375 0.375s-0.168 0.375-0.375 0.375h-0.5v0.556c0 0.207-0.168 0.375-0.375 0.375zM18.499 16.747c-0.207 0-0.375-0.168-0.375-0.375v0-0.931c0-0.207 0.168-0.375 0.375-0.375s0.375 0.168 0.375 0.375v0 0.931c0 0.207-0.168 0.375-0.375 0.375zM16.721 16.747c-0.207 0-0.375-0.168-0.375-0.375v0-0.931c0-0.207 0.168-0.375 0.375-0.375h0.875c0.207 0 0.375 0.168 0.375 0.375s-0.168 0.375-0.375 0.375h-0.5v0.556c0 0.207-0.168 0.375-0.375 0.375zM20.276 16.747c-0.207-0-0.375-0.168-0.375-0.375v0-0.556h-0.5c-0.207 0-0.375-0.168-0.375-0.375s0.168-0.375 0.375-0.375h0.875c0.207 0 0.375 0.168 0.375 0.375v0.931c0 0.207-0.168 0.375-0.375 0.375zM23.505 18.113h-0.671c-0.207 0-0.375-0.168-0.375-0.375s0.168-0.375 0.375-0.375h0.671c0.207 0 0.375 0.168 0.375 0.375s-0.168 0.375-0.375 0.375v0z"></path>
            <path d="M24.646 30.766h-2.954c-0.207 0-0.375-0.168-0.375-0.375v0-14.019c0-0.207 0.168-0.375 0.375-0.375h2.954c0.207 0 0.375 0.168 0.375 0.375v14.019c0 0.207-0.168 0.375-0.375 0.375zM22.067 30.016h2.204v-13.269h-2.204v13.269z"></path>
            <path d="M31.625 23.757h-6.979c-0.207 0-0.375-0.168-0.375-0.375v0-7.010c0-0.207 0.168-0.375 0.375-0.375h6.979c0.207 0 0.375 0.168 0.375 0.375v7.010c0 0.207-0.168 0.375-0.375 0.375zM25.021 23.007h6.229v-6.26h-6.229v6.26z"></path>
            <path d="M29.035 18.113h-1.799c-0.207 0-0.375-0.168-0.375-0.375s0.168-0.375 0.375-0.375h1.798c0.207 0 0.375 0.168 0.375 0.375s-0.168 0.375-0.375 0.375v0zM6.241 18.113h-1.798c-0.207 0-0.375-0.168-0.375-0.375s0.168-0.375 0.375-0.375h1.798c0.207 0 0.375 0.168 0.375 0.375s-0.168 0.375-0.375 0.375v0zM31.625 30.766h-6.979c-0.207 0-0.375-0.168-0.375-0.375v0-7.010c0-0.207 0.168-0.375 0.375-0.375h6.979c0.207 0 0.375 0.168 0.375 0.375v7.010c0 0.207-0.168 0.375-0.375 0.375zM25.021 30.016h6.229v-6.259h-6.229v6.259z"></path>
            <path d="M29.035 25.122h-1.799c-0.207 0-0.375-0.168-0.375-0.375s0.168-0.375 0.375-0.375h1.798c0.207 0 0.375 0.168 0.375 0.375s-0.168 0.375-0.375 0.375v0zM5.341 30.766h-4.966c-0.207 0-0.375-0.168-0.375-0.375v0-10.323c0-0.207 0.168-0.375 0.375-0.375h4.966c0.207 0 0.375 0.168 0.375 0.375v10.323c0 0.207-0.168 0.375-0.375 0.375zM0.75 30.016h4.216v-9.572h-4.216v9.572z"></path>
            <path d="M10.308 30.766h-4.966c-0.207 0-0.375-0.168-0.375-0.375v0-10.323c0-0.207 0.168-0.375 0.375-0.375h4.966c0.207 0 0.375 0.168 0.375 0.375v10.323c0 0.207-0.168 0.375-0.375 0.375zM5.716 30.016h4.216v-9.572h-4.216v9.572z"></path>
            <path d="M6.527 26.229c-0.207 0-0.375-0.168-0.375-0.375v0-1.248c0.006-0.202 0.172-0.364 0.375-0.364s0.369 0.162 0.375 0.364v1.249c0 0.207-0.168 0.375-0.375 0.375zM4.156 26.229c-0.207-0-0.375-0.168-0.375-0.375v0-1.248c0.006-0.202 0.172-0.364 0.375-0.364s0.369 0.162 0.375 0.364v1.249c0 0.207-0.168 0.375-0.375 0.375zM10.308 20.444h-9.933c-0.207 0-0.375-0.168-0.375-0.375v0-3.697c0-0.207 0.168-0.375 0.375-0.375h9.933c0.207 0 0.375 0.168 0.375 0.375v3.697c0 0.207-0.168 0.375-0.375 0.375zM0.75 19.693h9.183v-2.947h-9.183v2.947zM21.269 8.889h-10.539c-0.44-0.001-0.797-0.357-0.798-0.798v-1.077c0-0.44 0.357-0.797 0.798-0.798h10.539c0.44 0.001 0.797 0.357 0.798 0.798v1.077c-0.001 0.44-0.357 0.797-0.798 0.798h-0zM10.731 6.966c0 0 0 0 0 0-0.026 0-0.048 0.021-0.048 0.048v1.077c0 0.027 0.021 0.048 0.048 0.048v0h10.539c0.026 0 0.048-0.021 0.048-0.048v0-1.076c0-0.027-0.021-0.048-0.048-0.048v0h-10.539z"></path>
            <path d="M20.488 6.966h-8.975c-0.436-0-0.79-0.354-0.79-0.79 0-0.252 0.118-0.476 0.301-0.621l0.002-0.001 0.288-0.226c1.108-0.867 1.813-2.204 1.813-3.706 0-0.005 0-0.010-0-0.014v0.001c0-0.207 0.168-0.375 0.375-0.375h4.998c0.207 0 0.375 0.168 0.375 0.375 0 0.004-0 0.009-0 0.014 0 1.502 0.705 2.838 1.802 3.697l0.010 0.008 0.288 0.226c0.185 0.146 0.303 0.37 0.303 0.622 0 0.436-0.354 0.79-0.79 0.79v0zM13.864 1.984c-0.108 1.603-0.897 3.003-2.076 3.926l-0.012 0.009-0.288 0.225c-0.009 0.007-0.015 0.019-0.015 0.032 0 0.022 0.018 0.040 0.040 0.040h8.975c0.022-0 0.040-0.018 0.040-0.040 0-0.013-0.006-0.024-0.015-0.031l-0-0-0.288-0.226c-1.192-0.932-1.98-2.332-2.088-3.918l-0.001-0.017h-4.272zM30.464 8.889h-5.967c-0.519 0-0.94-0.421-0.94-0.94s0.421-0.94 0.94-0.94h5.967c0.519 0 0.94 0.421 0.94 0.94s-0.421 0.94-0.94 0.94v0zM24.497 7.759c-0.105 0-0.19 0.085-0.19 0.19s0.085 0.19 0.19 0.19v0h5.967c0.105 0 0.19-0.085 0.19-0.19s-0.085-0.19-0.19-0.19v0h-5.967zM7.503 8.889h-5.967c-0.519 0-0.94-0.421-0.94-0.94s0.421-0.94 0.94-0.94h5.967c0.519 0 0.94 0.421 0.94 0.94s-0.421 0.94-0.94 0.94v0zM1.536 7.759c-0.105 0-0.19 0.085-0.19 0.19s0.085 0.19 0.19 0.19v0h5.967c0.105 0 0.19-0.085 0.19-0.19s-0.085-0.19-0.19-0.19v0h-5.967z"></path>
            <path d="M6.905 7.759h-1.525c-0.207-0-0.375-0.168-0.375-0.375v0-1.289c0-0.207 0.168-0.375 0.375-0.375h1.525c0.207 0 0.375 0.168 0.375 0.375v1.29c0 0.207-0.168 0.375-0.375 0.375zM5.754 7.009h0.776v-0.539h-0.776v0.539z"></path>
            <path d="M7.264 6.47h-2.244c-0.202-0.006-0.364-0.172-0.364-0.375s0.162-0.369 0.364-0.375h2.245c0.202 0.006 0.364 0.172 0.364 0.375s-0.162 0.369-0.364 0.375h-0.001zM3.66 7.759h-1.526c-0.207-0-0.374-0.168-0.374-0.375 0 0 0 0 0 0v0-1.289c0-0.207 0.168-0.375 0.375-0.375h1.526c0.207 0 0.375 0.168 0.375 0.375v1.29c0 0.207-0.168 0.375-0.375 0.375zM2.509 7.009h0.776v-0.539h-0.776v0.539z"></path>
            <path d="M4.019 6.47h-2.244c-0.202-0.006-0.364-0.172-0.364-0.375s0.162-0.369 0.364-0.375h2.245c0.003-0 0.007-0 0.011-0 0.207 0 0.375 0.168 0.375 0.375s-0.168 0.375-0.375 0.375c-0.004 0-0.008-0-0.011-0h0.001zM6.905 6.47h-1.525c-0.207-0-0.375-0.168-0.375-0.375v0-1.289c0-0.207 0.168-0.375 0.375-0.375h1.525c0.207 0 0.375 0.168 0.375 0.375v1.29c0 0.207-0.168 0.375-0.375 0.375zM5.754 5.72h0.776v-0.539h-0.776v0.539z"></path>
            <path d="M7.264 5.181h-2.244c-0.207 0-0.375-0.168-0.375-0.375s0.168-0.375 0.375-0.375h2.244c0.202 0.006 0.364 0.172 0.364 0.375s-0.162 0.369-0.364 0.375h-0.001zM3.66 6.47h-1.526c-0.207-0-0.374-0.168-0.374-0.375 0 0 0 0 0 0v0-1.289c0-0.207 0.168-0.375 0.375-0.375h1.526c0.207 0 0.375 0.168 0.375 0.375v1.29c0 0.207-0.168 0.375-0.375 0.375zM2.509 5.72h0.776v-0.539h-0.776v0.539z"></path>
            <path d="M4.019 5.181h-2.244c-0.207 0-0.375-0.168-0.375-0.375s0.168-0.375 0.375-0.375h2.244c0.003-0 0.007-0 0.011-0 0.207 0 0.375 0.168 0.375 0.375s-0.168 0.375-0.375 0.375c-0.004 0-0.008-0-0.011-0h0.001zM27.48 7.759c-1.337-0-2.42-1.084-2.42-2.42 0-0.477 0.138-0.922 0.377-1.297l-0.006 0.010c0.069-0.109 0.189-0.175 0.317-0.175h3.465c0.129 0 0.248 0.066 0.317 0.175 0.233 0.365 0.371 0.81 0.371 1.287 0 1.337-1.083 2.42-2.42 2.42h-0zM25.97 4.626c-0.101 0.209-0.16 0.454-0.16 0.712 0 0.923 0.748 1.67 1.67 1.67s1.67-0.748 1.67-1.67c0-0.259-0.059-0.504-0.164-0.722l0.004 0.010h-3.022z"></path>
            <path d="M27.445 4.626c-0.207 0-0.375-0.168-0.375-0.375v0-2.413c0-0.207 0.168-0.375 0.375-0.375s0.375 0.168 0.375 0.375v0 2.413c0 0.207-0.168 0.375-0.375 0.375z"></path>
            <path d="M27.445 4.626c-0.207-0-0.375-0.168-0.375-0.375 0-0.103 0.042-0.197 0.11-0.265v0l1.298-1.298c0.067-0.064 0.158-0.104 0.259-0.104 0.207 0 0.375 0.168 0.375 0.375 0 0.1-0.040 0.192-0.104 0.259l0-0-1.298 1.298c-0.070 0.070-0.165 0.11-0.265 0.11z"></path>
            <path d="M27.445 4.626c-0.099 0-0.195-0.039-0.265-0.11l-1.298-1.298c-0.070-0.068-0.113-0.163-0.113-0.268 0-0.207 0.168-0.375 0.375-0.375 0.102 0 0.195 0.041 0.262 0.107l1.303 1.303c0.068 0.068 0.11 0.162 0.11 0.265 0 0.207-0.168 0.375-0.375 0.375-0 0-0 0-0 0v0zM19.474 15.816h-1.829c-1.037-0.001-1.877-0.841-1.878-1.878v-0.882c0-0.207 0.168-0.375 0.375-0.375h4.836c0.207 0 0.375 0.168 0.375 0.375v0.882c-0.001 1.037-0.841 1.877-1.878 1.878h-0zM16.517 13.431v0.507c0.001 0.623 0.505 1.128 1.128 1.129h1.829c0.623-0.001 1.128-0.506 1.129-1.129v-0.507h-4.086z"></path>
            <path d="M21.692 14.092h-0.715c-0.202-0.006-0.364-0.172-0.364-0.375s0.162-0.369 0.364-0.375h0.715c0.003-0 0.007-0 0.011-0 0.207 0 0.375 0.168 0.375 0.375s-0.168 0.375-0.375 0.375c-0.004 0-0.008-0-0.012-0h0.001zM16.020 14.092h-0.714c-0.202-0.006-0.364-0.172-0.364-0.375s0.162-0.369 0.364-0.375h0.715c0.202 0.006 0.364 0.172 0.364 0.375s-0.162 0.369-0.364 0.375h-0.001z"></path>
            <path d="M20.978 13.431h-4.836c-0 0-0 0-0 0-0.207 0-0.375-0.168-0.375-0.375 0-0.079 0.025-0.153 0.067-0.214l-0.001 0.001c0.525-0.763 1.57-1.237 2.727-1.237s2.202 0.474 2.727 1.237c0.041 0.059 0.066 0.133 0.066 0.212 0 0.207-0.168 0.375-0.375 0.375-0 0-0 0-0 0v0zM17.149 12.681h2.822c-0.412-0.205-0.897-0.325-1.411-0.325s-0.999 0.12-1.43 0.334l0.019-0.008z"></path>
            <path d="M18.102 12.385c-0.092 0-0.181-0.034-0.249-0.095-0.22-0.196-0.358-0.48-0.358-0.797 0-0.588 0.477-1.065 1.065-1.065s1.065 0.477 1.065 1.065c0 0.316-0.138 0.601-0.357 0.796l-0.001 0.001c-0.067 0.063-0.157 0.102-0.257 0.102-0.207 0-0.375-0.168-0.375-0.375 0-0.115 0.052-0.218 0.133-0.287l0.001-0c0.065-0.058 0.106-0.142 0.106-0.236 0-0.174-0.141-0.315-0.315-0.315s-0.315 0.141-0.315 0.315c0 0.094 0.041 0.178 0.106 0.236l0 0c0.077 0.069 0.126 0.169 0.126 0.28 0 0.207-0.168 0.375-0.375 0.375-0 0-0 0-0 0v0zM4.449 16.747h-1.584c-0.207 0-0.375-0.168-0.375-0.375v0-4.028c0-0.207 0.168-0.375 0.375-0.375h1.584c0.207 0 0.375 0.168 0.375 0.375v4.028c0 0.207-0.168 0.375-0.375 0.375zM3.24 15.997h0.834v-3.278h-0.834v3.278z"></path>
            <path d="M2.865 16.747h-1.584c-0.207-0-0.375-0.168-0.375-0.375v0-4.028c0-0.207 0.168-0.375 0.375-0.375h1.584c0.207 0 0.375 0.168 0.375 0.375v4.028c0 0.207-0.168 0.375-0.375 0.375zM1.656 15.997h0.834v-3.278h-0.834v3.278zM7.928 16.747h-0.707c-0.715-0.001-1.295-0.581-1.296-1.296v-1.315c0-0.207 0.168-0.375 0.375-0.375h2.55c0.207 0 0.375 0.168 0.375 0.375v1.315c-0.001 0.715-0.581 1.295-1.296 1.296h-0zM6.675 14.511v0.94c0 0.302 0.245 0.546 0.546 0.546h0.707c0.302-0 0.546-0.245 0.546-0.546v-0.94h-1.8z"></path>
            <path d="M9.068 14.511h-2.988c-0.391-0.001-0.708-0.317-0.708-0.708v-0.389c0.001-0.391 0.317-0.708 0.708-0.708h2.989c0.391 0.001 0.708 0.317 0.708 0.708v0.389c-0 0.391-0.317 0.708-0.708 0.708h-0zM6.122 13.761h2.905v-0.306h-2.905v0.306zM24.95 16.747h-1.931c-0.207 0-0.375-0.168-0.375-0.375v0-2.639c0-0.207 0.168-0.375 0.375-0.375h1.931c0.207 0 0.375 0.168 0.375 0.375v2.639c0 0.207-0.168 0.375-0.375 0.375zM23.395 15.997h1.181v-1.889h-1.181v1.889z"></path>
            <path d="M24.95 14.108h-1.931c-0.207 0-0.375-0.168-0.375-0.375v-1.153c0-0.207 0.168-0.375 0.375-0.375h1.931c0.207 0 0.375 0.168 0.375 0.375v1.153c0 0.207-0.168 0.375-0.375 0.375zM23.395 13.358h1.181v-0.403h-1.181v0.403zM29.58 15.478c-0.613 0-1.092-0.589-1.092-1.342s0.48-1.343 1.092-1.343c0.613 0 1.092 0.59 1.092 1.343s-0.48 1.343-1.092 1.343zM29.58 13.543c-0.162 0-0.342 0.253-0.342 0.593s0.181 0.593 0.342 0.593c0.162 0 0.342-0.253 0.342-0.593s-0.181-0.593-0.342-0.593z"></path>
            <path d="M29.58 13.536c-0.175 0-0.326-0.121-0.365-0.291l-0.573-2.5c-0.016-0.065-0.024-0.139-0.024-0.216 0-0.532 0.431-0.963 0.963-0.963s0.963 0.431 0.963 0.963c0 0.076-0.009 0.151-0.026 0.222l0.001-0.007-0.573 2.5c-0.039 0.171-0.191 0.291-0.365 0.291zM29.58 10.316c-0.118 0-0.213 0.095-0.213 0.213 0 0.017 0.002 0.033 0.006 0.049l-0-0.001 0.208 0.906 0.208-0.906c0.003-0.014 0.005-0.031 0.005-0.047 0-0.118-0.095-0.213-0.213-0.213-0 0-0 0-0 0v0zM26.883 13.536c-0.175 0-0.326-0.121-0.365-0.291l-0.573-2.5c-0.016-0.065-0.024-0.139-0.024-0.216 0-0.532 0.431-0.963 0.963-0.963s0.963 0.431 0.963 0.963c0 0.076-0.009 0.151-0.026 0.222l0.001-0.007-0.573 2.5c-0.039 0.171-0.191 0.291-0.365 0.291zM26.883 10.316c-0.118 0-0.213 0.095-0.213 0.213 0 0.017 0.002 0.033 0.006 0.049l-0-0.001 0.208 0.906 0.208-0.906c0.003-0.014 0.005-0.031 0.005-0.048 0-0.118-0.095-0.213-0.213-0.213-0 0-0 0-0 0v0z"></path>
            <path d="M27.744 14.748h-1.723c-0.188-0-0.344-0.139-0.371-0.32l-0-0.002c-0.011-0.067-0.017-0.144-0.017-0.223 0-0.376 0.137-0.72 0.365-0.984l-0.002 0.002c0.242-0.279 0.565-0.44 0.886-0.44s0.644 0.16 0.886 0.44c0.226 0.262 0.363 0.606 0.363 0.982 0 0.079-0.006 0.156-0.018 0.232l0.001-0.008c-0.027 0.183-0.183 0.322-0.371 0.322v0zM26.411 13.998h0.942c-0.030-0.11-0.083-0.206-0.152-0.286l0.001 0.001c-0.095-0.11-0.221-0.181-0.32-0.181s-0.224 0.071-0.319 0.181c-0.069 0.079-0.121 0.175-0.15 0.28l-0.001 0.005z"></path>
        </symbol>
        <symbol id="icon-wardrobe-1" viewBox="0 0 32 32">
            <path d="M26.485 32h-20.97c-0.207 0-0.375-0.168-0.375-0.375v0-31.25c0-0.207 0.168-0.375 0.375-0.375h20.97c0.207 0 0.375 0.168 0.375 0.375v31.25c0 0.207-0.168 0.375-0.375 0.375zM5.89 31.25h20.22v-30.5h-20.22v30.5z"></path>
            <path d="M16 22.878c-0.207 0-0.375-0.12-0.375-0.268v-22.342c0-0.148 0.168-0.268 0.375-0.268s0.375 0.12 0.375 0.268v22.342c0 0.148-0.168 0.268-0.375 0.268zM16 32h-10.485c-0.207 0-0.375-0.168-0.375-0.375v0-4.561c0-0.207 0.168-0.375 0.375-0.375h10.485c0.207 0 0.375 0.168 0.375 0.375v4.561c0 0.207-0.168 0.375-0.375 0.375zM5.89 31.25h9.735v-3.811h-9.735v3.811z"></path>
            <path d="M16 27.439h-10.485c-0.207 0-0.375-0.168-0.375-0.375v0-4.561c0-0.207 0.168-0.375 0.375-0.375h10.485c0.207 0 0.375 0.168 0.375 0.375v4.561c0 0.207-0.168 0.375-0.375 0.375zM5.89 26.689h9.734v-3.811h-9.734v3.811z"></path>
            <path d="M11.285 25.158h-1.056c-0.202-0.006-0.364-0.172-0.364-0.375s0.162-0.369 0.364-0.375h1.056c0.207 0 0.375 0.168 0.375 0.375s-0.168 0.375-0.375 0.375v0zM13.79 12.273c-0.207 0-0.375-0.168-0.375-0.375v0-0.918c0-0.207 0.168-0.375 0.375-0.375s0.375 0.168 0.375 0.375v0.918c0 0.207-0.168 0.375-0.375 0.375zM18.21 16.834c-0.207 0-0.375-0.168-0.375-0.375v0-0.918c0-0.207 0.168-0.375 0.375-0.375s0.375 0.168 0.375 0.375v0.918c0 0.207-0.168 0.375-0.375 0.375zM11.285 29.72h-1.056c-0.207 0-0.375-0.168-0.375-0.375s0.168-0.375 0.375-0.375h1.056c0.207 0 0.375 0.168 0.375 0.375s-0.168 0.375-0.375 0.375v0z"></path>
        </symbol>
        <symbol id="icon-wardrobe" viewBox="0 0 32 32">
            <path d="M29.934 13.464h-27.869c-0.207 0-0.375-0.168-0.375-0.375v0-8.151c0-0.207 0.168-0.375 0.375-0.375h27.869c0.207 0 0.375 0.168 0.375 0.375v8.151c0 0.207-0.168 0.375-0.375 0.375zM2.441 12.714h27.119v-7.401h-27.119v7.401z"></path>
            <path d="M29.934 21.615h-27.869c-0.207 0-0.375-0.168-0.375-0.375v0-8.151c0-0.207 0.168-0.375 0.375-0.375h27.869c0.207 0 0.375 0.168 0.375 0.375v8.151c0 0.207-0.168 0.375-0.375 0.375zM2.441 20.865h27.119v-7.401h-27.119v7.401z"></path>
            <path d="M29.934 29.766h-27.869c-0.207 0-0.375-0.168-0.375-0.375v0-8.151c0-0.207 0.168-0.375 0.375-0.375h27.869c0.207 0 0.375 0.168 0.375 0.375v8.151c0 0.207-0.168 0.375-0.375 0.375zM2.441 29.016h27.119v-7.401h-27.119v7.401zM16.701 9.388h-1.403c-0.207 0-0.375-0.168-0.375-0.375s0.168-0.375 0.375-0.375h1.403c0.207 0 0.375 0.168 0.375 0.375s-0.168 0.375-0.375 0.375v0zM16.701 17.539h-1.403c-0.003 0-0.007 0-0.011 0-0.207 0-0.375-0.168-0.375-0.375s0.168-0.375 0.375-0.375c0.004 0 0.008 0 0.011 0h1.402c0.207 0 0.375 0.168 0.375 0.375s-0.168 0.375-0.375 0.375v0z"></path>
            <path d="M16.701 25.691h-1.403c-0.207 0-0.375-0.168-0.375-0.375s0.168-0.375 0.375-0.375h1.403c0.207 0 0.375 0.168 0.375 0.375s-0.168 0.375-0.375 0.375v0zM31 5.313h-30c-0.552-0.001-0.999-0.448-1-1v-1.079c0.001-0.552 0.448-0.999 1-1h30c0.552 0.001 0.999 0.448 1 1v1.079c-0.001 0.552-0.448 0.999-1 1h-0zM1 2.984c-0.138 0-0.25 0.112-0.25 0.25v1.079c0 0.138 0.112 0.25 0.25 0.25h30c0.138 0 0.25-0.112 0.25-0.25v-1.079c0-0.138-0.112-0.25-0.25-0.25h-30z"></path>
        </symbol>
        <symbol id="icon-armchair" viewBox="0 0 32 32">
            <path d="M24.287 16.852h-16.574c-0.796-0.001-1.441-0.646-1.442-1.442v-10.408c0.001-0.796 0.646-1.441 1.442-1.442h16.574c0.796 0.001 1.441 0.646 1.442 1.442v10.408c-0.001 0.796-0.646 1.441-1.442 1.442h-0zM7.713 4.31c-0.382 0-0.692 0.31-0.692 0.692v10.408c0.001 0.382 0.31 0.691 0.692 0.692h16.574c0.382-0.001 0.691-0.31 0.692-0.692v-10.408c-0-0.382-0.31-0.692-0.692-0.692h-16.574z"></path>
            <path d="M24.287 26.206h-16.574c-0.796-0.001-1.441-0.646-1.442-1.442v-7.22c0.001-0.796 0.646-1.441 1.442-1.442h16.574c0.796 0.001 1.441 0.646 1.442 1.442v7.22c-0.001 0.796-0.646 1.441-1.442 1.442h-0zM7.713 16.851c-0.382 0-0.692 0.31-0.692 0.692v7.22c0 0.382 0.31 0.692 0.692 0.692h16.574c0.382-0.001 0.691-0.31 0.692-0.692v-7.22c-0-0.382-0.31-0.692-0.692-0.692h-16.574z"></path>
            <path d="M30.558 26.206h-4.137c-0.796-0.001-1.441-0.646-1.442-1.442v-12.653c0.001-0.796 0.646-1.441 1.442-1.442h4.137c0.796 0.001 1.441 0.646 1.442 1.442v12.654c-0.001 0.796-0.646 1.441-1.442 1.442h-0zM26.421 11.418c-0.382 0-0.692 0.31-0.692 0.692v12.653c0 0.382 0.31 0.692 0.692 0.692h4.137c0.382-0 0.692-0.31 0.692-0.692v-12.653c-0-0.382-0.31-0.692-0.692-0.692h-4.137zM5.579 26.206h-4.137c-0.796-0.001-1.441-0.646-1.442-1.442v-12.654c0.001-0.796 0.646-1.441 1.442-1.442h4.137c0.796 0.001 1.441 0.646 1.442 1.442v12.654c-0.001 0.796-0.646 1.441-1.442 1.442h-0zM1.442 11.418c-0.382 0.001-0.691 0.31-0.692 0.692v12.653c0 0.382 0.31 0.692 0.692 0.692h4.137c0.382-0.001 0.691-0.31 0.692-0.692v-12.653c-0-0.382-0.31-0.692-0.692-0.692h-4.137z"></path>
            <path d="M25.354 21.529h-18.708c-0.207 0-0.375-0.168-0.375-0.375s0.168-0.375 0.375-0.375h18.707c0.207 0 0.375 0.168 0.375 0.375s-0.168 0.375-0.375 0.375v0zM3.51 28.44c-0 0-0.001 0-0.001 0-0.631 0-1.16-0.432-1.309-1.017l-0.002-0.009-0.372-1.493c-0.007-0.027-0.011-0.058-0.011-0.091 0-0.207 0.168-0.375 0.375-0.375h2.642c0.207 0 0.375 0.168 0.375 0.375 0 0.032-0.004 0.063-0.012 0.093l0.001-0.003-0.372 1.493c-0.151 0.594-0.68 1.026-1.311 1.026-0.001 0-0.001 0-0.002 0h0zM2.669 26.206l0.256 1.028c0.068 0.265 0.304 0.457 0.585 0.457s0.517-0.192 0.584-0.453l0.001-0.004 0.256-1.028h-1.682zM28.49 28.44c-0.001 0-0.001 0-0.002 0-0.63 0-1.16-0.432-1.309-1.016l-0.002-0.009-0.372-1.494c-0.007-0.027-0.011-0.058-0.011-0.091 0-0.207 0.168-0.375 0.375-0.375h2.642c0.207 0 0.375 0.168 0.375 0.375 0 0.032-0.004 0.063-0.012 0.093l0.001-0.003-0.372 1.494c-0.151 0.593-0.68 1.025-1.311 1.025-0.001 0-0.001 0-0.002 0h0zM27.648 26.206l0.256 1.028c0.068 0.264 0.304 0.456 0.585 0.456s0.517-0.192 0.584-0.452l0.001-0.004 0.256-1.028h-1.682z"></path>
        </symbol>
        <symbol id="icon-bedroom" viewBox="0 0 32 32">
            <path fill="#44c697" style="fill: var(--color1, #44c697)" d="M27.099 10.803h-22.198c-0.207 0-0.375-0.168-0.375-0.375v0-7.789c0-0.207 0.168-0.375 0.375-0.375h22.198c0.207 0 0.375 0.168 0.375 0.375v7.789c0 0.207-0.168 0.375-0.375 0.375zM5.276 10.053h21.448v-7.039h-21.448v7.039z"></path>
            <path fill="#44c697" style="fill: var(--color1, #44c697)" d="M25.378 10.803h-18.756c-0.207 0-0.375-0.168-0.375-0.375v0-6.068c0-0.207 0.168-0.375 0.375-0.375h18.756c0.207 0 0.375 0.168 0.375 0.375v6.068c0 0.207-0.168 0.375-0.375 0.375zM6.997 10.053h18.006v-5.318h-18.006v5.318z"></path>
            <path fill="#44c697" style="fill: var(--color1, #44c697)" d="M14.869 10.803h-7.116c-0.831-0.001-1.505-0.675-1.506-1.506v-3.806c0.001-0.831 0.675-1.505 1.506-1.506h7.117c0.831 0.001 1.505 0.675 1.506 1.506v3.806c-0.001 0.831-0.675 1.505-1.506 1.506h-0zM7.753 4.735c-0.417 0.001-0.755 0.339-0.756 0.756v3.806c0.001 0.417 0.339 0.755 0.756 0.756h7.117c0.417-0.001 0.755-0.339 0.756-0.756v-3.806c-0-0.417-0.338-0.756-0.756-0.756h-7.117z"></path>
            <path fill="#44c697" style="fill: var(--color1, #44c697)" d="M24.247 10.803h-7.116c-0.831-0.001-1.505-0.675-1.506-1.506v-3.806c0.001-0.831 0.675-1.505 1.506-1.506h7.116c0.831 0.001 1.505 0.675 1.506 1.506v3.806c-0.001 0.831-0.675 1.505-1.506 1.506h-0zM17.131 4.735c-0.417 0.001-0.755 0.339-0.756 0.756v3.806c0.001 0.417 0.339 0.755 0.756 0.756h7.116c0.417-0 0.756-0.338 0.756-0.756v-3.806c-0-0.417-0.339-0.756-0.756-0.756h-7.116z"></path>
            <path fill="#44c697" style="fill: var(--color1, #44c697)" d="M27.371 29.736h-22.741c-0.831-0.001-1.505-0.675-1.506-1.506v-16.671c0.001-0.831 0.675-1.505 1.506-1.506h22.741c0.831 0.001 1.505 0.675 1.506 1.506v16.671c-0.001 0.831-0.675 1.505-1.506 1.506h-0zM4.629 10.803c-0.417 0-0.756 0.338-0.756 0.756v16.671c0.001 0.417 0.339 0.755 0.756 0.756h22.741c0.417-0.001 0.755-0.339 0.756-0.756v-16.671c-0.001-0.417-0.339-0.755-0.756-0.756h-22.741zM27.515 3.014h-23.030c-0.752-0.001-1.361-0.61-1.362-1.361v-0.291c0.001-0.752 0.61-1.361 1.362-1.362h23.030c0.752 0.001 1.361 0.61 1.362 1.361v0.291c-0.001 0.752-0.61 1.361-1.361 1.362h-0zM4.485 0.75c-0.338 0-0.611 0.274-0.612 0.611v0.291c0 0.338 0.274 0.611 0.612 0.612h23.030c0.338-0 0.611-0.274 0.612-0.611v-0.291c-0.001-0.338-0.274-0.611-0.612-0.612h-23.030z"></path>
            <path fill="#44c697" style="fill: var(--color1, #44c697)" d="M27.515 32h-23.030c-0.752-0.001-1.361-0.61-1.362-1.361v-0.291c0.001-0.752 0.61-1.361 1.362-1.362h23.030c0.752 0.001 1.361 0.61 1.362 1.361v0.291c-0.001 0.752-0.61 1.361-1.361 1.362h-0zM4.485 29.736c-0.338 0-0.611 0.274-0.612 0.611v0.291c0 0.338 0.274 0.611 0.612 0.612h23.030c0.338-0 0.611-0.274 0.612-0.611v-0.291c-0.001-0.338-0.274-0.611-0.612-0.612h-23.030z"></path>
        </symbol>
        <symbol id="icon-living-room" viewBox="0 0 32 32">
            <path d="M14.933 27.898h-9.568c-0.796-0.001-1.442-0.646-1.442-1.442v-3.717c0.001-0.796 0.646-1.441 1.442-1.442h9.568c0.796 0.001 1.441 0.646 1.442 1.442v3.717c-0.001 0.796-0.646 1.441-1.442 1.442h-0zM5.365 22.046c-0.382 0-0.692 0.31-0.692 0.692v3.717c0 0.382 0.31 0.692 0.692 0.692h9.568c0.382-0 0.692-0.31 0.692-0.692v-3.717c-0-0.382-0.31-0.692-0.692-0.692h-9.568z"></path>
            <path d="M3.23 27.898h-1.788c-0.796-0.001-1.441-0.646-1.442-1.442v-7.116c0.001-0.796 0.646-1.441 1.442-1.442h1.789c0.796 0.001 1.441 0.646 1.442 1.442v7.116c-0.001 0.796-0.646 1.441-1.442 1.442h-0zM1.442 18.647c-0.382 0.001-0.691 0.31-0.692 0.692v7.116c0.001 0.382 0.31 0.691 0.692 0.692h1.789c0.382-0.001 0.691-0.31 0.692-0.692v-7.116c-0-0.382-0.31-0.692-0.692-0.692h-1.788z"></path>
            <path d="M27.702 24.972h-23.405c-0.207 0-0.375-0.168-0.375-0.375s0.168-0.375 0.375-0.375h23.405c0.207 0 0.375 0.168 0.375 0.375s-0.168 0.375-0.375 0.375v0zM14.933 22.046h-9.568c-0.796-0.001-1.441-0.646-1.442-1.442v-5.711c0.001-0.796 0.646-1.441 1.442-1.442h9.568c0.796 0.001 1.442 0.646 1.442 1.442v5.711c-0.001 0.796-0.646 1.441-1.442 1.442h-0zM5.365 14.201c-0.382 0-0.692 0.31-0.692 0.692v5.711c0 0.382 0.31 0.692 0.692 0.692h9.568c0.382-0 0.692-0.31 0.692-0.692v-5.711c-0-0.382-0.31-0.692-0.692-0.692h-9.568z"></path>
            <path d="M26.635 22.046h-9.568c-0.796-0.001-1.441-0.646-1.442-1.442v-5.711c0.001-0.796 0.646-1.441 1.442-1.442h9.568c0.796 0.001 1.442 0.646 1.442 1.442v5.711c-0.001 0.796-0.646 1.441-1.442 1.442h-0zM17.067 14.201c-0.382 0-0.692 0.31-0.692 0.692v5.711c0 0.382 0.31 0.692 0.692 0.692h9.568c0.382-0 0.692-0.31 0.692-0.692v-5.711c-0-0.382-0.31-0.692-0.692-0.692h-9.568z"></path>
            <path d="M26.635 27.898h-9.568c-0.796-0.001-1.441-0.646-1.442-1.442v-3.717c0.001-0.796 0.646-1.441 1.442-1.442h9.568c0.796 0.001 1.441 0.646 1.442 1.442v3.717c-0.001 0.796-0.646 1.441-1.442 1.442h-0zM17.067 22.046c-0.382 0-0.692 0.31-0.692 0.692v3.717c0 0.382 0.31 0.692 0.692 0.692h9.568c0.382-0 0.692-0.31 0.692-0.692v-3.717c-0-0.382-0.31-0.692-0.692-0.692h-9.568z"></path>
            <path d="M30.558 27.898h-1.788c-0.796-0.001-1.441-0.646-1.442-1.442v-7.116c0.001-0.796 0.646-1.442 1.442-1.442h1.788c0.796 0.001 1.441 0.646 1.442 1.442v7.116c-0.001 0.796-0.646 1.441-1.442 1.442h-0zM28.77 18.647c-0.382 0-0.692 0.31-0.692 0.692v7.116c0.001 0.382 0.31 0.691 0.692 0.692h1.789c0.382-0.001 0.691-0.31 0.692-0.692v-7.116c-0-0.382-0.31-0.692-0.692-0.692h-1.788zM16.877 22.046h-1.754c-0.207 0-0.375-0.168-0.375-0.375s0.168-0.375 0.375-0.375h1.754c0.207 0 0.375 0.168 0.375 0.375s-0.168 0.375-0.375 0.375v0zM22.864 12.364h-13.728c-0.207 0-0.375-0.168-0.375-0.375v0-8.909c0-0.207 0.168-0.375 0.375-0.375h13.728c0.207 0 0.375 0.168 0.375 0.375v8.909c0 0.207-0.168 0.375-0.375 0.375zM9.511 11.614h12.979v-8.159h-12.979v8.159z"></path>
            <path d="M21.615 11.115h-11.23c-0.207 0-0.375-0.168-0.375-0.375v0-6.411c0-0.207 0.168-0.375 0.375-0.375h11.23c0.207 0 0.375 0.168 0.375 0.375v6.411c0 0.207-0.168 0.375-0.375 0.375zM10.76 10.365h10.48v-5.661h-10.48v5.661z"></path>
            <path d="M11.729 9.741c-0 0-0 0-0 0-0.207 0-0.375-0.168-0.375-0.375 0-0.103 0.042-0.197 0.11-0.265v0l1.929-1.929c0.068-0.068 0.162-0.11 0.265-0.11s0.197 0.042 0.265 0.11l1.17 1.17c0.064 0.067 0.104 0.158 0.104 0.259 0 0.207-0.168 0.375-0.375 0.375-0.1 0-0.192-0.040-0.259-0.104l0 0-0.905-0.905-1.663 1.663c-0.070 0.070-0.166 0.11-0.265 0.11z"></path>
            <path d="M20.271 9.722c-0.099 0-0.195-0.039-0.265-0.11l-1.369-1.37c-0.514-0.513-1.027-1.027-1.54-1.54l-0.468-0.468-2.087 2.087c-0.068 0.068-0.162 0.11-0.265 0.11-0.207 0-0.375-0.168-0.375-0.375 0-0.104 0.042-0.197 0.11-0.265l2.352-2.352c0.068-0.068 0.162-0.11 0.265-0.11s0.198 0.042 0.266 0.11v0c0.166 0.166 0.326 0.326 0.486 0.486l0.005 0.005 0.241 0.241c0.513 0.514 1.026 1.027 1.54 1.54 0.456 0.457 0.912 0.913 1.369 1.37 0.068 0.068 0.11 0.162 0.11 0.265 0 0.207-0.168 0.375-0.375 0.375v0z"></path>
            <path d="M18.902 8.352c-0.099 0-0.195-0.039-0.265-0.11-0.514-0.513-1.028-1.027-1.54-1.54-0.068-0.068-0.11-0.162-0.11-0.265 0-0.051 0.010-0.1 0.029-0.145l-0.001 0.002c0.239-0.571 0.793-0.966 1.44-0.966 0.859 0 1.556 0.697 1.556 1.556 0 0.646-0.394 1.201-0.955 1.436l-0.010 0.004c-0.045 0.019-0.093 0.028-0.142 0.028zM17.83 6.375c0.378 0.378 0.756 0.756 1.134 1.134 0.183-0.149 0.299-0.374 0.299-0.626 0-0.445-0.361-0.806-0.806-0.806-0.252 0-0.477 0.116-0.625 0.297l-0.001 0.001zM29.664 29.295c-0 0-0.001 0-0.001 0-0.46 0-0.846-0.315-0.955-0.741l-0.001-0.007-0.233-0.934c-0.007-0.027-0.011-0.058-0.011-0.091 0-0.207 0.168-0.375 0.375-0.375 0 0 0 0 0 0h1.652c0 0 0 0 0 0 0.207 0 0.375 0.168 0.375 0.375 0 0.032-0.004 0.064-0.012 0.093l0.001-0.003-0.233 0.934c-0.11 0.433-0.496 0.748-0.956 0.748-0 0-0.001 0-0.002 0h0zM29.317 27.897l0.117 0.468c0.027 0.103 0.119 0.178 0.229 0.178s0.202-0.075 0.229-0.177l0-0.002 0.117-0.468h-0.693zM2.336 29.295c-0 0-0.001 0-0.001 0-0.46 0-0.846-0.315-0.955-0.741l-0.001-0.007-0.233-0.934c-0.007-0.027-0.011-0.058-0.011-0.091 0-0.207 0.168-0.375 0.375-0.375 0 0 0 0 0 0h1.652c0 0 0 0 0 0 0.207 0 0.375 0.168 0.375 0.375 0 0.032-0.004 0.064-0.012 0.093l0.001-0.003-0.233 0.934c-0.11 0.433-0.496 0.748-0.956 0.748-0.001 0-0.001 0-0.002 0h0zM1.99 27.897l0.117 0.468c0.027 0.103 0.119 0.178 0.229 0.178s0.202-0.075 0.229-0.177l0-0.002 0.117-0.468h-0.692z"></path>
        </symbol>
        <symbol id="icon-Telegram" viewBox="0 0 32 32">
            <path d="M13.339 19.255v-0.001l7.418-6.695c0.326-0.289-0.071-0.43-0.503-0.168l-9.156 5.777-3.955-1.234c-0.854-0.262-0.861-0.848 0.192-1.27l15.411-5.942c0.704-0.32 1.384 0.169 1.115 1.246l-2.625 12.368c-0.184 0.879-0.714 1.090-1.45 0.683l-3.998-2.954-1.939 1.886c-0.215 0.209-0.393 0.382-0.782 0.382l0.272-4.078z"></path>
        </symbol>
        <symbol id="icon-Facebook" viewBox="0 0 32 32">
            <path d="M17.668 25.408v-8.706h2.402l0.318-3h-2.721l0.004-1.501c0-0.782 0.074-1.202 1.198-1.202h1.502v-3h-2.403c-2.886 0-3.902 1.455-3.902 3.902v1.801h-1.8v3h1.8v8.704h3.602z"></path>
        </symbol>
        <symbol id="icon-Instagram" viewBox="0 0 32 32">
            <path d="M12.482 7.518c0.91-0.042 1.201-0.052 3.518-0.052h-0.002c2.318 0 2.608 0.010 3.518 0.052s1.53 0.186 2.074 0.396c0.592 0.226 1.096 0.561 1.511 0.983l0.001 0.001c0.423 0.416 0.758 0.92 0.974 1.483l0.010 0.029c0.21 0.542 0.354 1.162 0.397 2.071 0.041 0.91 0.052 1.201 0.052 3.518s-0.011 2.608-0.052 3.518c-0.042 0.908-0.186 1.528-0.396 2.070-0.227 0.592-0.562 1.096-0.985 1.511l-0.001 0.001c-0.415 0.423-0.919 0.758-1.482 0.974l-0.029 0.010c-0.542 0.212-1.163 0.355-2.072 0.397-0.91 0.042-1.2 0.052-3.518 0.052s-2.608-0.010-3.518-0.052c-0.909-0.042-1.528-0.185-2.072-0.396-0.591-0.226-1.095-0.561-1.51-0.984l-0.001-0.001c-0.423-0.416-0.758-0.92-0.974-1.483l-0.010-0.029c-0.211-0.542-0.355-1.162-0.397-2.071s-0.052-1.2-0.052-3.518 0.011-2.608 0.052-3.518c0.040-0.909 0.184-1.528 0.396-2.072 0.227-0.591 0.562-1.095 0.984-1.511l0.001-0.001c0.416-0.423 0.92-0.758 1.483-0.974l0.029-0.010c0.542-0.21 1.162-0.354 2.071-0.396zM15.716 9.004h-0.48v-0.002c-1.591 0.002-1.896 0.012-2.683 0.048-0.832 0.038-1.284 0.177-1.584 0.294-0.385 0.144-0.713 0.362-0.982 0.638l-0.001 0.001c-0.277 0.269-0.494 0.597-0.632 0.963l-0.006 0.018c-0.117 0.301-0.256 0.752-0.294 1.584-0.041 0.9-0.049 1.168-0.049 3.447s0.008 2.549 0.048 3.448c0.038 0.832 0.178 1.284 0.294 1.584 0.155 0.399 0.34 0.682 0.638 0.982s0.584 0.483 0.982 0.638c0.301 0.117 0.752 0.256 1.584 0.294 0.9 0.041 1.17 0.050 3.449 0.050s2.549-0.010 3.448-0.050c0.832-0.038 1.284-0.176 1.584-0.294 0.385-0.144 0.713-0.362 0.981-0.638l0.001-0.001c0.298-0.298 0.483-0.582 0.638-0.98 0.117-0.301 0.256-0.752 0.294-1.584 0.041-0.9 0.050-1.17 0.050-3.448s-0.008-2.547-0.050-3.446c-0.038-0.832-0.177-1.284-0.294-1.584-0.145-0.385-0.362-0.713-0.638-0.981l-0.001-0.001c-0.268-0.277-0.596-0.494-0.963-0.632l-0.018-0.006c-0.301-0.117-0.752-0.256-1.584-0.294-0.9-0.041-1.17-0.049-3.448-0.049h-0.286zM11.618 16c-0.001-0.025-0.001-0.054-0.001-0.084 0-2.42 1.962-4.382 4.382-4.382s4.382 1.962 4.382 4.382c0 0.029-0 0.059-0.001 0.088l0-0.004c-0.047 2.384-1.991 4.299-4.382 4.299s-4.335-1.915-4.382-4.294l-0-0.004zM18.846 16c0-1.571-1.274-2.845-2.845-2.845s-2.845 1.274-2.845 2.845v0c0 1.571 1.274 2.845 2.845 2.845s2.845-1.274 2.845-2.845v0zM19.532 11.445c0-0.566 0.458-1.024 1.024-1.024s1.024 0.458 1.024 1.024v0c0 0.566-0.458 1.024-1.024 1.024s-1.024-0.458-1.024-1.024v0z"></path>
        </symbol>
        <symbol id="icon-shopping-cart" viewBox="0 0 32 32">
            <path d="M12.129 27.291c-0.178 0-0.322 0.144-0.322 0.322s0.144 0.322 0.322 0.322v0c0.178 0 0.323-0.144 0.323-0.323s-0.144-0.323-0.323-0.323v0zM9.87 27.613c0-1.247 1.011-2.259 2.259-2.259s2.259 1.011 2.259 2.259v0c0 1.247-1.011 2.259-2.259 2.259s-2.259-1.011-2.259-2.259v0zM26.323 27.291c-0.178 0-0.322 0.144-0.322 0.322s0.144 0.322 0.322 0.322v0c0.178 0 0.323-0.144 0.323-0.323s-0.144-0.323-0.323-0.323v0zM24.064 27.613c0-1.247 1.011-2.259 2.259-2.259s2.259 1.011 2.259 2.259v0c-0.027 1.226-1.028 2.21-2.258 2.21s-2.231-0.984-2.258-2.208l-0-0.003zM0.839 1.806c0-0.535 0.434-0.968 0.967-0.968h5.161c0.461 0 0.859 0.326 0.95 0.778l1.135 5.673h21.141c0.534 0.001 0.967 0.434 0.967 0.968 0 0.064-0.006 0.127-0.018 0.188l0.001-0.006-2.065 10.833c-0.334 1.64-1.765 2.857-3.48 2.857-0.021 0-0.041-0-0.062-0.001l0.003 0h-12.525c-0.017 0-0.037 0-0.057 0-1.715 0-3.145-1.216-3.477-2.833l-0.004-0.023-2.158-10.778c-0.006-0.024-0.013-0.055-0.018-0.086l-0.001-0.005-1.125-5.63h-4.369c-0.534 0-0.968-0.433-0.968-0.967v-0zM9.44 9.226l1.935 9.669c0.152 0.746 0.803 1.299 1.582 1.299 0.011 0 0.021-0 0.031-0l-0.002 0h12.579c0.009 0 0.020 0 0.031 0 0.778 0 1.428-0.552 1.579-1.285l0.002-0.010v-0.003l1.845-9.669h-19.584z"></path>
        </symbol>
        <symbol id="icon-mobil" viewBox="0 0 32 32">
            <path d="M24 0h-18c-1.1 0-2 0.9-2 2v28c0 1.1 0.9 2 2 2h18c1.1 0 2-0.9 2-2v-28c0-1.1-0.9-2-2-2zM15 30.556c-0.859 0-1.556-0.697-1.556-1.556s0.697-1.556 1.556-1.556 1.556 0.697 1.556 1.556-0.697 1.556-1.556 1.556zM24 26h-18v-22h18v22z"></path>
        </symbol>
    </defs>
</svg>